<svg width="13" height="13" viewBox="0 0 13 13" fill="none" xmlns="http://www.w3.org/2000/svg">
<path fill-rule="evenodd" clip-rule="evenodd" d="M6.50045 9.8382C6.58717 9.8382 6.67362 9.86005 6.75249 9.90346L9.46256 11.3954L8.94521 8.23564C8.91486 8.05177 8.97339 7.86365 9.10104 7.73342L11.2935 5.49584L8.26362 5.03476C8.08693 5.00781 7.93435 4.89176 7.85549 4.72435L6.50045 1.84978L5.14542 4.72435C5.06628 4.89176 4.9137 5.00781 4.73728 5.03476L1.70715 5.49584L3.89987 7.73342C4.02751 7.86365 4.08578 8.05177 4.0557 8.23564L3.53807 11.3954L6.24814 9.90346C6.32728 9.86005 6.41373 9.8382 6.50045 9.8382ZM10.1822 12.9998C10.0958 12.9998 10.0093 12.9786 9.92993 12.9349L6.50006 11.0469L3.07019 12.9349C2.88754 13.0353 2.66612 13.0186 2.49918 12.8917C2.33224 12.7646 2.24877 12.5495 2.28373 12.3367L2.93876 8.3377L0.163642 5.50569C0.015943 5.35503 -0.0371744 5.12945 0.0265123 4.92402C0.09047 4.7186 0.25985 4.56907 0.464189 4.53785L4.29894 3.95449L6.01388 0.316086C6.1052 0.122576 6.29383 0 6.50006 0C6.7063 0 6.89465 0.122576 6.98598 0.316086L8.70091 3.95449L12.5359 4.53785C12.74 4.56907 12.9097 4.7186 12.9736 4.92402C13.037 5.12945 12.9842 5.35503 12.8362 5.50569L10.0614 8.3377L10.7164 12.3367C10.7514 12.5495 10.6676 12.7646 10.5009 12.8917C10.4064 12.9635 10.2944 12.9998 10.1822 12.9998Z" fill="white"/>
</svg>
