<svg width="13" height="12" viewBox="0 0 13 12" fill="none" xmlns="http://www.w3.org/2000/svg">
<path fill-rule="evenodd" clip-rule="evenodd" d="M12.3941 1.30382L11.5869 0.558011C10.7797 -0.186004 9.47326 -0.186004 8.66885 0.558011L6.42485 2.62902C6.20849 2.82897 6.20849 3.1531 6.42485 3.35332C6.6412 3.55327 6.99348 3.55327 7.20983 3.35332L9.45384 1.28206C9.82276 0.939492 10.4302 0.939492 10.8019 1.28206L11.6119 2.02991C11.9836 2.37273 11.9836 2.92882 11.6119 3.2719L8.05584 6.55391C7.68415 6.89648 7.07669 6.89648 6.70777 6.55391L6.08367 5.97836C5.86731 5.77815 5.51504 5.77815 5.29868 5.97836C5.08232 6.17832 5.08232 6.50245 5.29868 6.70241L5.92556 7.28001C6.72996 8.02274 8.03365 8.02274 8.83806 7.28001L12.3941 3.99774C13.2013 3.25372 13.2013 2.04758 12.3941 1.30382" fill="white"/>
<path fill-rule="evenodd" clip-rule="evenodd" d="M0.603303 10.6963L1.41048 11.4421C2.21766 12.1861 3.52412 12.1861 4.3313 11.4421L6.5753 9.37113C6.79166 9.17117 6.79166 8.84704 6.5753 8.64683C6.35617 8.44687 6.00667 8.44687 5.79032 8.64683L3.54631 10.7181C3.17462 11.0607 2.56716 11.0607 2.19547 10.7181L1.38552 9.97023C1.01383 9.62741 1.01383 9.07132 1.38552 8.72824L4.94153 5.44623C5.31322 5.10367 5.92069 5.10367 6.29238 5.44623L6.91648 6.02178C7.13284 6.22199 7.48234 6.22199 7.69869 6.02178C7.91783 5.82182 7.91783 5.49769 7.69869 5.29773L7.07459 4.72014C6.27019 3.9774 4.96372 3.9774 4.15932 4.72014L0.603303 8.00241C-0.201101 8.74642 -0.201101 9.95231 0.603303 10.6963" fill="white"/>
</svg>
