<svg width="40" height="42" viewBox="0 0 40 42" fill="none" xmlns="http://www.w3.org/2000/svg">
<path d="M5.5 10V16" stroke="white" stroke-width="2"/>
<path d="M10 21.5H15" stroke="white" stroke-width="2"/>
<path d="M23 24L31 33" stroke="white" stroke-width="2"/>
<path d="M30 36.5H25" stroke="white" stroke-width="2"/>
<path fill-rule="evenodd" clip-rule="evenodd" d="M5.5 10C7.98528 10 10 7.98528 10 5.5C10 3.01472 7.98528 1 5.5 1C3.01472 1 1 3.01472 1 5.5C1 7.98528 3.01472 10 5.5 10Z" stroke="white" stroke-width="2" stroke-linecap="square"/>
<path fill-rule="evenodd" clip-rule="evenodd" d="M20.5 10C22.9853 10 25 7.98528 25 5.5C25 3.01472 22.9853 1 20.5 1C18.0147 1 16 3.01472 16 5.5C16 7.98528 18.0147 10 20.5 10Z" stroke="white" stroke-width="2" stroke-linecap="square"/>
<path fill-rule="evenodd" clip-rule="evenodd" d="M34.5 10C36.9853 10 39 7.98528 39 5.5C39 3.01472 36.9853 1 34.5 1C32.0147 1 30 3.01472 30 5.5C30 7.98528 32.0147 10 34.5 10Z" stroke="white" stroke-width="2" stroke-linecap="square"/>
<path fill-rule="evenodd" clip-rule="evenodd" d="M5.5 26C7.98528 26 10 23.9853 10 21.5C10 19.0147 7.98528 17 5.5 17C3.01472 17 1 19.0147 1 21.5C1 23.9853 3.01472 26 5.5 26Z" stroke="white" stroke-width="2" stroke-linecap="square"/>
<path fill-rule="evenodd" clip-rule="evenodd" d="M20.5 26C22.9853 26 25 23.9853 25 21.5C25 19.0147 22.9853 17 20.5 17C18.0147 17 16 19.0147 16 21.5C16 23.9853 18.0147 26 20.5 26Z" stroke="white" stroke-width="2" stroke-linecap="square"/>
<path fill-rule="evenodd" clip-rule="evenodd" d="M34.5 26C36.9853 26 39 23.9853 39 21.5C39 19.0147 36.9853 17 34.5 17C32.0147 17 30 19.0147 30 21.5C30 23.9853 32.0147 26 34.5 26Z" stroke="white" stroke-width="2" stroke-linecap="square"/>
<path fill-rule="evenodd" clip-rule="evenodd" d="M5.5 41C7.98528 41 10 38.9853 10 36.5C10 34.0147 7.98528 32 5.5 32C3.01472 32 1 34.0147 1 36.5C1 38.9853 3.01472 41 5.5 41Z" stroke="white" stroke-width="2" stroke-linecap="square"/>
<path fill-rule="evenodd" clip-rule="evenodd" d="M20.5 41C22.9853 41 25 38.9853 25 36.5C25 34.0147 22.9853 32 20.5 32C18.0147 32 16 34.0147 16 36.5C16 38.9853 18.0147 41 20.5 41Z" stroke="white" stroke-width="2" stroke-linecap="square"/>
<path fill-rule="evenodd" clip-rule="evenodd" d="M34.5 41C36.9853 41 39 38.9853 39 36.5C39 34.0147 36.9853 32 34.5 32C32.0147 32 30 34.0147 30 36.5C30 38.9853 32.0147 41 34.5 41Z" stroke="white" stroke-width="2" stroke-linecap="square"/>
</svg>
