<svg width="691" height="602" viewBox="0 0 691 602" fill="none" xmlns="http://www.w3.org/2000/svg">
<path opacity="0.40446" fill-rule="evenodd" clip-rule="evenodd" d="M675.978 286.346H648.939C621.9 271.17 513.743 92.0974 510.739 55.6758L530.267 23.8068C534.774 16.219 531.77 7.1136 525.761 2.56089C518.25 -1.99181 509.237 1.04333 504.73 7.1136L488.207 35.9474L486.704 37.4649C474.687 43.5352 426.617 51.1231 345.5 51.1231C264.383 51.1231 216.313 43.5352 205.798 37.4649L204.296 35.9474L187.772 7.1136C183.265 -0.47424 174.252 -1.99181 166.741 2.56089C159.23 7.1136 157.728 16.219 162.235 23.8068L180.261 55.6758C177.257 92.0974 69.1 271.17 42.0609 286.346H15.0217C6.0087 286.346 0 292.416 0 301.522C0 310.627 6.0087 316.697 15.0217 316.697H42.0609C69.1 331.873 177.257 510.946 180.261 547.368L160.733 579.237C156.226 586.824 159.23 595.93 165.239 600.482C168.243 602 169.746 602 172.75 602C177.257 602 183.265 598.965 186.27 594.412L202.793 565.578L204.296 564.061C213.309 557.991 261.378 551.92 343.998 551.92C426.617 551.92 473.185 559.508 483.7 564.061L485.202 565.578L501.726 594.412C504.73 598.965 509.237 602 515.246 602C518.25 602 521.254 602 522.757 600.482C530.267 595.93 531.77 586.824 527.263 579.237L510.739 547.368C513.743 510.946 621.9 330.355 648.939 316.697H675.978C684.991 316.697 691 310.627 691 301.522C691 292.416 684.991 286.346 675.978 286.346ZM527.263 164.941C540.783 189.222 575.333 248.407 606.878 286.346H528.765C510.739 274.205 453.657 184.669 446.146 160.388L488.207 89.0622C497.22 107.273 509.237 131.554 527.263 164.941ZM372.539 316.697L428.12 410.786C431.124 406.234 434.128 400.164 437.133 394.093C438.635 391.058 462.67 347.049 488.207 316.697H372.539ZM253.867 394.093C252.365 391.058 226.828 347.049 202.793 316.697H318.461L262.88 410.786C259.876 406.234 256.872 400.164 253.867 394.093ZM318.461 286.346L262.88 192.257C259.876 196.809 256.872 202.88 253.868 208.95L253.867 208.95C252.365 211.985 228.33 255.995 202.793 286.346H318.461ZM289.92 178.599C303.439 180.116 321.465 181.634 345.5 181.634C369.535 181.634 387.561 180.116 401.08 178.599L345.5 272.688L289.92 178.599ZM401.08 424.445L345.5 330.355L289.92 424.445C303.439 422.927 321.465 421.409 345.5 421.409C369.535 421.409 387.561 422.927 401.08 424.445ZM372.539 286.346L428.12 192.257C431.124 196.81 434.128 202.88 437.133 208.95C438.635 211.985 464.172 255.995 488.207 286.346H372.539ZM464.172 75.4041C440.137 78.4393 402.583 81.4744 345.5 81.4744C288.417 81.4744 250.863 78.4393 226.828 73.8866L268.889 145.212C276.4 148.247 303.439 151.283 345.5 151.283C387.561 151.283 414.6 148.247 422.111 145.212L464.172 75.4041ZM163.737 164.941C183.265 131.554 193.78 107.273 201.291 89.0622L243.352 160.388C237.343 184.669 178.759 274.205 160.733 286.346H84.1217C115.667 249.924 150.217 189.222 163.737 164.941ZM84.1217 316.697C115.667 354.637 150.217 413.822 163.737 438.103C181.763 471.489 193.78 495.77 201.291 513.981L244.854 442.655C237.343 418.374 180.261 328.838 162.235 316.697H84.1217ZM345.5 521.569C288.417 521.569 250.863 524.604 226.828 527.639L268.889 457.831C276.4 454.796 303.439 451.761 345.5 451.761C387.561 451.761 414.6 454.796 422.111 457.831L464.172 527.639C440.137 524.604 402.583 521.569 345.5 521.569ZM489.709 513.981C497.22 495.77 507.735 471.489 527.263 438.103C540.783 413.822 575.333 353.119 608.38 316.697H530.267C512.241 328.838 453.657 418.374 447.648 442.655L489.709 513.981Z" fill="#F6F8F9"/>
</svg>
