<svg width="41" height="41" viewBox="0 0 41 41" fill="none" xmlns="http://www.w3.org/2000/svg">
<path d="M25 6L35 16" stroke="white" stroke-width="2"/>
<path d="M21 7.14931C16.0607 4.93034 10.112 5.92429 6.07818 10.1329C5.25046 10.9964 4.56816 11.9497 4 12.9543L9.79574 19" stroke="white" stroke-width="2"/>
<path d="M33.8128 20C36.0819 24.936 35.0965 30.8889 30.8715 34.931C30.0101 35.7551 29.059 36.4343 28.0569 37L22 31.2054" stroke="white" stroke-width="2"/>
<path fill-rule="evenodd" clip-rule="evenodd" d="M16.8463 34L7 24.1537C7 24.1537 15.4103 3.23057 39 2C37.6667 25.487 16.8463 34 16.8463 34Z" stroke="white" stroke-width="2" stroke-linecap="square"/>
<path fill-rule="evenodd" clip-rule="evenodd" d="M1 35.5C1 33.0151 3.0151 31 5.5 31C7.9849 31 10 33.0151 10 35.5C10 37.9849 7.9849 40 5.5 40C4.4875 40 1 40 1 40C1 40 1 36.9733 1 35.5Z" stroke="white" stroke-width="2" stroke-linecap="square"/>
<path fill-rule="evenodd" clip-rule="evenodd" d="M22.5 22C24.433 22 26 20.433 26 18.5C26 16.567 24.433 15 22.5 15C20.567 15 19 16.567 19 18.5C19 20.433 20.567 22 22.5 22Z" stroke="white" stroke-width="2" stroke-linecap="square"/>
</svg>
