<svg width="13" height="13" fill="none" xmlns="http://www.w3.org/2000/svg"><path fill-rule="evenodd" clip-rule="evenodd" d="M6.5 9.838c.087 0 .174.022.252.065l2.71 1.492-.517-3.16a.584.584 0 0 1 .156-.502l2.192-2.237-3.03-.461a.544.544 0 0 1-.408-.31L6.5 1.85 5.145 4.724a.545.545 0 0 1-.408.31l-3.03.462L3.9 7.733c.128.13.186.319.156.503l-.518 3.16 2.71-1.493a.524.524 0 0 1 .252-.065ZM10.182 13a.521.521 0 0 1-.252-.065L6.5 11.047l-3.43 1.888a.522.522 0 0 1-.57-.043.58.58 0 0 1-.216-.555l.655-4-2.775-2.83a.586.586 0 0 1-.137-.582.55.55 0 0 1 .437-.386L4.3 3.954 6.014.316A.54.54 0 0 1 6.5 0a.54.54 0 0 1 .486.316l1.715 3.638 3.835.584a.55.55 0 0 1 .438.386.586.586 0 0 1-.138.582l-2.775 2.832.655 3.999a.58.58 0 0 1-.215.555.526.526 0 0 1-.319.108Z" fill="#fff"/></svg>