<svg width="13" height="12" fill="none" xmlns="http://www.w3.org/2000/svg"><path fill-rule="evenodd" clip-rule="evenodd" d="m12.394 1.304-.807-.746c-.807-.744-2.114-.744-2.918 0L6.425 2.629a.485.485 0 0 0 0 .724c.216.2.568.2.785 0l2.244-2.07a1.013 1.013 0 0 1 1.348 0l.81.747a.831.831 0 0 1 0 1.242L8.056 6.554c-.372.342-.98.342-1.348 0l-.624-.576a.588.588 0 0 0-.785 0 .485.485 0 0 0 0 .724l.627.578c.804.743 2.108.743 2.912 0l3.556-3.282a1.801 1.801 0 0 0 0-2.694" fill="#fff"/><path fill-rule="evenodd" clip-rule="evenodd" d="m.603 10.696.807.746c.808.744 2.114.744 2.921 0l2.244-2.07a.485.485 0 0 0 0-.725.589.589 0 0 0-.785 0l-2.244 2.071a1.014 1.014 0 0 1-1.35 0l-.81-.748a.831.831 0 0 1 0-1.242l3.556-3.282a1.016 1.016 0 0 1 1.35 0l.624.576c.217.2.566.2.783 0a.48.48 0 0 0 0-.724l-.624-.578c-.805-.743-2.111-.743-2.916 0L.603 8.002a1.805 1.805 0 0 0 0 2.694" fill="#fff"/></svg>