<svg width="33" height="29" fill="none" xmlns="http://www.w3.org/2000/svg"><path fill-rule="evenodd" clip-rule="evenodd" d="M32.283 13.794H30.99c-1.291-.731-6.456-9.357-6.6-11.112l.933-1.535c.215-.366.072-.804-.215-1.024-.359-.219-.79-.073-1.005.22l-.789 1.389-.072.073c-.573.292-2.87.658-6.743.658-3.874 0-6.17-.366-6.672-.658l-.071-.073-.79-1.39c-.215-.365-.645-.438-1.004-.219-.359.22-.43.658-.215 1.024l.86 1.535c-.143 1.755-5.308 10.381-6.6 11.112H.719c-.431 0-.718.292-.718.731s.287.731.717.731H2.01c1.291.731 6.456 9.358 6.6 11.112l-.933 1.535c-.215.366-.072.805.215 1.024.144.073.216.073.359.073.215 0 .502-.146.646-.366l.789-1.389.072-.073c.43-.292 2.726-.585 6.671-.585 3.946 0 6.17.366 6.672.585l.072.073.789 1.39a.75.75 0 0 0 .646.365c.143 0 .287 0 .358-.073.359-.22.43-.658.215-1.024l-.789-1.535c.144-1.754 5.309-10.454 6.6-11.112h1.292c.43 0 .717-.292.717-.73 0-.44-.287-.732-.717-.732ZM25.18 7.946c.646 1.17 2.296 4.02 3.803 5.848h-3.73c-.862-.585-3.588-4.898-3.947-6.068l2.01-3.436c.43.878 1.004 2.047 1.864 3.656Zm-7.389 7.31 2.655 4.533c.143-.22.287-.512.43-.804.072-.147 1.22-2.267 2.44-3.729H17.79Zm-5.667 3.729c-.072-.147-1.291-2.267-2.44-3.729h5.525l-2.655 4.533a8.145 8.145 0 0 1-.43-.804Zm3.085-5.19-2.655-4.533a8.04 8.04 0 0 0-.43.804c-.072.146-1.22 2.266-2.44 3.728h5.525Zm-1.363-5.191c.645.073 1.506.146 2.654.146s2.009-.073 2.654-.146L16.5 13.136l-2.654-4.532Zm5.308 11.843L16.5 15.914l-2.654 4.533A22.972 22.972 0 0 1 16.5 20.3c1.148 0 2.009.073 2.654.146Zm-1.363-6.653 2.655-4.532c.143.219.287.511.43.804.072.146 1.291 2.266 2.44 3.728H17.79Zm4.376-10.162c-1.147.147-2.94.293-5.667.293-2.726 0-4.52-.146-5.667-.366l2.008 3.436c.359.146 1.65.293 3.659.293s3.3-.147 3.659-.293l2.008-3.363ZM7.82 7.946A27.835 27.835 0 0 0 9.613 4.29l2.009 3.436c-.287 1.17-3.085 5.483-3.946 6.068H4.017C5.524 12.04 7.174 9.115 7.82 7.946Zm-3.803 7.31c1.507 1.828 3.157 4.679 3.803 5.849.86 1.608 1.434 2.778 1.793 3.655l2.08-3.436c-.358-1.17-3.084-5.483-3.945-6.068h-3.73Zm12.483 9.87c-2.726 0-4.52.146-5.667.292l2.008-3.363c.359-.146 1.65-.292 3.659-.292s3.3.146 3.659.292l2.008 3.363c-1.147-.146-2.94-.293-5.667-.293Zm6.887-.366c.359-.877.86-2.047 1.793-3.655.646-1.17 2.296-4.094 3.874-5.849h-3.73c-.861.585-3.659 4.898-3.946 6.068l2.009 3.436Z" fill="#FC5C42"/></svg>