<svg width="40" height="42" fill="none" xmlns="http://www.w3.org/2000/svg"><path d="M5.5 10v6m4.5 5.5h5m8 2.5 8 9m-1 3.5h-5" stroke="#fff" stroke-width="2"/><path clip-rule="evenodd" d="M5.5 10a4.5 4.5 0 1 0 0-9 4.5 4.5 0 0 0 0 9Zm15 0a4.5 4.5 0 1 0 0-9 4.5 4.5 0 0 0 0 9Zm14 0a4.5 4.5 0 1 0 0-9 4.5 4.5 0 0 0 0 9Zm-29 16a4.5 4.5 0 1 0 0-9 4.5 4.5 0 0 0 0 9Zm15 0a4.5 4.5 0 1 0 0-9 4.5 4.5 0 0 0 0 9Zm14 0a4.5 4.5 0 1 0 0-9 4.5 4.5 0 0 0 0 9Zm-29 15a4.5 4.5 0 1 0 0-9 4.5 4.5 0 0 0 0 9Zm15 0a4.5 4.5 0 1 0 0-9 4.5 4.5 0 0 0 0 9Zm14 0a4.5 4.5 0 1 0 0-9 4.5 4.5 0 0 0 0 9Z" stroke="#fff" stroke-width="2" stroke-linecap="square"/></svg>