<svg width="691" height="602" fill="none" xmlns="http://www.w3.org/2000/svg"><path opacity=".404" fill-rule="evenodd" clip-rule="evenodd" d="M675.978 286.346h-27.039C621.9 271.17 513.743 92.097 510.739 55.676l19.528-31.87c4.507-7.587 1.503-16.692-4.506-21.245-7.511-4.553-16.524-1.518-21.031 4.553l-16.523 28.833-1.503 1.518c-12.017 6.07-60.087 13.658-141.204 13.658s-129.187-7.588-139.702-13.658l-1.502-1.518-16.524-28.833c-4.507-7.588-13.52-9.106-21.031-4.553-7.511 4.553-9.013 13.658-4.506 21.246l18.026 31.869C177.257 92.097 69.1 271.17 42.061 286.346H15.02c-9.01 0-15.02 6.07-15.02 15.176 0 9.105 6.009 15.175 15.022 15.175H42.06c27.039 15.176 135.196 194.249 138.2 230.671l-19.528 31.869c-4.507 7.587-1.503 16.693 4.506 21.245C168.243 602 169.746 602 172.75 602c4.507 0 10.515-3.035 13.52-7.588l16.523-28.834 1.503-1.517c9.013-6.07 57.082-12.141 139.702-12.141 82.619 0 129.187 7.588 139.702 12.141l1.502 1.517 16.524 28.834c3.004 4.553 7.511 7.588 13.52 7.588 3.004 0 6.008 0 7.511-1.518 7.51-4.552 9.013-13.658 4.506-21.245l-16.524-31.869c3.004-36.422 111.161-217.013 138.2-230.671h27.039c9.013 0 15.022-6.07 15.022-15.175 0-9.106-6.009-15.176-15.022-15.176ZM527.263 164.941c13.52 24.281 48.07 83.466 79.615 121.405h-78.113c-18.026-12.141-75.108-101.677-82.619-125.958l42.061-71.326c9.013 18.211 21.03 42.492 39.056 75.879ZM372.539 316.697l55.581 94.089c3.004-4.552 6.008-10.622 9.013-16.693 1.502-3.035 25.537-47.044 51.074-77.396H372.539Zm-118.672 77.396c-1.502-3.035-27.039-47.044-51.074-77.396h115.668l-55.581 94.089c-3.004-4.552-6.008-10.622-9.013-16.693Zm64.594-107.747-55.581-94.089c-3.004 4.552-6.008 10.623-9.012 16.693h-.001c-1.502 3.035-25.537 47.045-51.074 77.396h115.668ZM289.92 178.599c13.519 1.517 31.545 3.035 55.58 3.035 24.035 0 42.061-1.518 55.58-3.035l-55.58 94.089-55.58-94.089Zm111.16 245.846-55.58-94.09-55.58 94.09c13.519-1.518 31.545-3.036 55.58-3.036 24.035 0 42.061 1.518 55.58 3.036Zm-28.541-138.099 55.581-94.089c3.004 4.553 6.008 10.623 9.013 16.693 1.502 3.035 27.039 47.045 51.074 77.396H372.539Zm91.633-210.942c-24.035 3.035-61.589 6.07-118.672 6.07s-94.637-3.035-118.672-7.587l42.061 71.325c7.511 3.035 34.55 6.071 76.611 6.071 42.061 0 69.1-3.036 76.611-6.071l42.061-69.808Zm-300.435 89.537c19.528-33.387 30.043-57.668 37.554-75.879l42.061 71.326c-6.009 24.281-64.593 113.817-82.619 125.958H84.122c31.545-36.422 66.095-97.124 79.615-121.405ZM84.122 316.697c31.545 37.94 66.095 97.125 79.615 121.406 18.026 33.386 30.043 57.667 37.554 75.878l43.563-71.326c-7.511-24.281-64.593-113.817-82.619-125.958H84.122ZM345.5 521.569c-57.083 0-94.637 3.035-118.672 6.07l42.061-69.808c7.511-3.035 34.55-6.07 76.611-6.07 42.061 0 69.1 3.035 76.611 6.07l42.061 69.808c-24.035-3.035-61.589-6.07-118.672-6.07Zm144.209-7.588c7.511-18.211 18.026-42.492 37.554-75.878 13.52-24.281 48.07-84.984 81.117-121.406h-78.113c-18.026 12.141-76.61 101.677-82.619 125.958l42.061 71.326Z" fill="#F6F8F9"/></svg>