<svg width="41" height="41" fill="none" xmlns="http://www.w3.org/2000/svg"><path d="m25 6 10 10M21 7.15c-4.94-2.22-10.888-1.226-14.922 2.983A14.04 14.04 0 0 0 4 12.954L9.796 19m24.017 1c2.269 4.936 1.283 10.889-2.942 14.931A14.006 14.006 0 0 1 28.058 37L22 31.205" stroke="#fff" stroke-width="2"/><path clip-rule="evenodd" d="M16.846 34 7 24.154S15.41 3.23 39 2c-1.333 23.487-22.154 32-22.154 32ZM1 35.5A4.5 4.5 0 1 1 5.5 40H1v-4.5Z" stroke="#fff" stroke-width="2" stroke-linecap="square"/><path clip-rule="evenodd" d="M22.5 22a3.5 3.5 0 1 0 0-7 3.5 3.5 0 0 0 0 7Z" stroke="#fff" stroke-width="2" stroke-linecap="square"/></svg>